<?xml version="1.0" standalone="no"?>
<!DOCTYPE svg PUBLIC "-//W3C//DTD SVG 20010904//EN"
 "http://www.w3.org/TR/2001/REC-SVG-20010904/DTD/svg10.dtd">
<svg version="1.0" xmlns="http://www.w3.org/2000/svg"
 width="288.000000pt" height="288.000000pt" viewBox="0 0 288.000000 288.000000"
 preserveAspectRatio="xMidYMid meet">
<metadata>
Created by potrace 1.14, written by Peter Selinger 2001-2017
</metadata>
<g transform="translate(0.000000,288.000000) scale(0.100000,-0.100000)"
fill="#000000" stroke="none">
<path d="M819 2651 c-45 -45 -38 -77 36 -159 50 -55 90 -82 124 -82 23 0 19
22 67 -354 19 -153 31 -282 27 -286 -4 -4 -143 -107 -309 -228 l-301 -221 -9
-148 -9 -147 -30 -7 c-16 -4 -70 -12 -120 -19 -120 -15 -201 -36 -252 -66
l-43 -25 0 -123 c0 -122 0 -123 32 -167 87 -121 280 -272 564 -442 l112 -67
68 6 c38 3 357 16 709 29 l640 23 58 64 c132 146 249 335 303 493 22 64 28 99
28 175 1 85 -2 101 -27 152 -58 118 -136 154 -334 152 -73 -1 -133 -1 -133 0
0 1 11 61 25 135 29 157 31 191 9 236 l-15 33 138 133 c76 74 183 178 239 231
55 54 104 98 109 98 5 0 21 -12 37 -27 l28 -26 62 58 c35 33 65 60 67 62 3 2
-8 16 -23 32 -24 25 -25 29 -11 41 8 7 39 40 67 73 l52 60 -59 53 c-33 29 -67
54 -75 54 -8 0 -42 -27 -76 -61 -53 -53 -62 -58 -74 -45 -7 9 -16 16 -20 16
-5 0 -36 -28 -69 -62 l-62 -62 33 -33 32 -33 -259 -260 c-191 -191 -266 -260
-283 -260 -46 0 -136 -53 -197 -115 l-60 -62 -165 -22 c-91 -13 -322 -45 -515
-72 -192 -27 -356 -48 -364 -47 -8 2 112 91 268 198 155 107 290 200 298 206
15 10 13 31 -16 230 -66 444 -90 560 -129 624 -55 90 -138 116 -193 61z"/>
</g>
</svg>
